<?xml version="1.0" encoding="utf-8"?>
<!-- Generator: Adobe Illustrator 16.0.3, SVG Export Plug-In . SVG Version: 6.00 Build 0)  -->
<!DOCTYPE svg PUBLIC "-//W3C//DTD SVG 1.1//EN" "http://www.w3.org/Graphics/SVG/1.1/DTD/svg11.dtd">
<svg version="1.1" id="Layer_1" xmlns="http://www.w3.org/2000/svg" xmlns:xlink="http://www.w3.org/1999/xlink" x="0px" y="0px"
	 width="333.746px" height="61.797px" viewBox="0 0 333.746 61.797" enable-background="new 0 0 333.746 61.797"
	 xml:space="preserve">
<g>
	<path fill="#540000" d="M35.385,0.94V13.42h-10.77v47.352H11.111V13.42H0V0.94H35.385z"/>
	<path fill="#540000" d="M34.009,60.771v-2.137L45.889,0.94l22.736,0.085l11.881,57.609v2.137H66.403l-2.137-13.591H50.249
		l-2.137,13.591H34.009z M52.044,35.386h10.427l-3.418-21.625h-3.59L52.044,35.386z"/>
	<path fill="#540000" d="M85.471,60.771V0.94h21.367c3.646,0,6.823,0.683,9.53,2.051c2.706,1.368,4.83,3.505,6.368,6.411
		c1.539,2.906,2.308,6.695,2.308,11.367c0,4.615-0.841,8.448-2.521,11.497c-1.682,3.048-3.904,5.327-6.668,6.837
		c-2.764,1.511-5.769,2.266-9.018,2.266h-7.863v19.402H85.471z M98.975,29.745h5.813c1.367,0,2.535-0.356,3.504-1.069
		c0.969-0.712,1.695-1.709,2.181-2.991c0.482-1.282,0.726-2.721,0.726-4.316c0-1.595-0.243-3.005-0.726-4.23
		c-0.485-1.226-1.212-2.18-2.181-2.864c-0.969-0.684-2.137-1.025-3.504-1.025h-5.813V29.745z"/>
	<path fill="#540000" d="M160.779,0.94v12.308h-17.438v12.65c1.71-0.627,3.476-1.125,5.3-1.496c1.823-0.37,3.618-0.612,5.386-0.727
		c1.766-0.113,3.418-0.086,4.957,0.086v11.88l-0.854,0.513c-1.197-0.397-2.579-0.625-4.146-0.684
		c-1.568-0.056-3.264,0.029-5.086,0.258c-1.824,0.227-3.676,0.654-5.557,1.281v11.453h17.438v12.309h-30.941V0.94H160.779z"/>
	<path fill="#540000" d="M202.72,44.361c0,3.704-0.769,6.852-2.308,9.443c-1.539,2.594-3.662,4.573-6.367,5.941
		c-2.707,1.366-5.8,2.051-9.273,2.051c-2.736,0-5.287-0.328-7.65-0.982c-2.365-0.655-4.402-1.439-6.111-2.352
		c-1.71-0.91-2.964-1.68-3.762-2.307V42.908h1.711c1.822,1.709,4.045,3.204,6.666,4.486s5.071,1.923,7.351,1.923
		c1.14,0,2.15-0.184,3.034-0.556c0.883-0.369,1.581-0.897,2.094-1.581c0.514-0.685,0.771-1.48,0.771-2.394
		c0-1.48-0.471-2.677-1.411-3.59c-0.94-0.91-2.408-1.936-4.402-3.076l-5.982-3.42c-1.768-1.025-3.504-2.249-5.213-3.675
		c-1.71-1.423-3.121-3.219-4.231-5.384c-1.111-2.166-1.667-4.844-1.667-8.035c0-3.816,0.798-7.037,2.393-9.658
		s3.719-4.602,6.368-5.941C177.377,0.67,180.326,0,183.574,0c2.449,0,4.701,0.243,6.753,0.727c2.051,0.484,3.917,1.14,5.599,1.965
		c1.68,0.828,3.089,1.811,4.23,2.949v13.248h-1.709c-1.826-1.936-3.947-3.489-6.368-4.658c-2.423-1.167-4.802-1.751-7.138-1.751
		c-1.424,0-2.637,0.355-3.632,1.068c-0.998,0.713-1.496,1.751-1.496,3.119c0,1.425,0.654,2.68,1.966,3.761
		c1.311,1.083,3.104,2.308,5.385,3.676l6.154,3.761c1.937,1.196,3.603,2.55,5,4.06c1.396,1.51,2.479,3.277,3.248,5.299
		C202.335,39.247,202.72,41.625,202.72,44.361z"/>
	<path fill="#540000" d="M240.72,0.94V13.42h-10.77v47.352h-13.505V13.42h-11.111V0.94H240.72z"/>
	<path fill="#540000" d="M283.269,29.745c1.709-2.792,2.564-6.296,2.564-10.514c0-4.103-0.771-7.507-2.309-10.214
		c-1.538-2.706-3.647-4.729-6.324-6.069c-2.68-1.338-5.728-2.008-9.146-2.008h-8.718h-6.924h-6.581l-0.171,59.831h13.676v-22.65
		h5.146l7.247,22.65h14.104v-2.137l-8.784-22.836C279.567,34.407,281.646,32.395,283.269,29.745z M259.336,13.248h6.923
		c1.196,0,2.208,0.271,3.034,0.813c0.826,0.542,1.453,1.296,1.881,2.265c0.428,0.97,0.641,2.108,0.641,3.419
		c0,1.312-0.213,2.494-0.641,3.547c-0.428,1.055-1.055,1.867-1.881,2.437s-1.838,0.854-3.034,0.854h-6.923V13.248z"/>
	<path fill="#540000" d="M288.104,0.94h14.188l6.667,28.633h3.933l6.666-28.633h14.188v2.136L322.978,42.48h-5.3v18.291h-13.505
		V42.565h-5.3l-10.77-39.489V0.94z"/>
</g>
</svg>
